<svg
  width="130"
  height="100"
  viewBox="35 25 130 100"
  xmlns="http://www.w3.org/2000/svg"
>

  <!-- Bread body -->
  <path
    d="M40 60
       Q40 30 70 30
       Q85 30 100 40
       Q115 30 130 30
       Q160 30 160 60
       L160 105
       Q160 120 140 120
       L60 120
       Q40 120 40 105
       Z"
    fill="#f2c86b"
    stroke="#c38b41"
    stroke-width="3"
  />

  <!-- Top highlight -->
  <path
    d="M45 60
       Q45 35 70 35
       Q85 35 100 45
       Q115 35 130 35
       Q155 35 155 60"
    fill="none"
    stroke="#fbe4a4"
    stroke-width="5"
    stroke-linecap="round"
  />

  <!-- Bread cuts -->
  <path
    d="M75 45 Q70 60 65 75"
    fill="none"
    stroke="#d89a46"
    stroke-width="3"
    stroke-linecap="round"
  />
  <path
    d="M100 45 Q95 60 90 75"
    fill="none"
    stroke="#d89a46"
    stroke-width="3"
    stroke-linecap="round"
  />
  <path
    d="M125 45 Q120 60 115 75"
    fill="none"
    stroke="#d89a46"
    stroke-width="3"
    stroke-linecap="round"
  />
</svg>
